<?xml version="1.0" standalone="no"?>
<!DOCTYPE svg PUBLIC "-//W3C//DTD SVG 20010904//EN"
 "http://www.w3.org/TR/2001/REC-SVG-20010904/DTD/svg10.dtd">
<svg version="1.0" xmlns="http://www.w3.org/2000/svg"
 width="2333.000000pt" height="2475.000000pt" viewBox="0 0 2333.000000 2475.000000"
 preserveAspectRatio="xMidYMid meet">

<g transform="translate(0.000000,2475.000000) scale(0.100000,-0.100000)"
fill="#000000" stroke="none">
<path d="M10080 23949 c-651 -34 -1243 -121 -1840 -269 -1578 -391 -3025
-1205 -4135 -2325 -1290 -1301 -2077 -2926 -2265 -4677 -122 -1146 43 -2207
489 -3133 259 -538 584 -994 1026 -1444 478 -486 1016 -888 1667 -1247 59 -32
108 -62 108 -66 0 -4 -39 -30 -86 -58 -311 -183 -693 -324 -1049 -385 -144
-25 -333 -45 -423 -45 -75 0 -85 -2 -107 -25 -29 -28 -32 -57 -7 -81 29 -30
231 -159 347 -222 126 -69 145 -84 145 -113 0 -30 -89 -127 -251 -274 -150
-138 -161 -156 -113 -194 34 -27 95 -27 282 -1 586 81 1117 276 1602 589 146
94 381 273 486 371 l40 38 60 -25 c282 -115 797 -293 1124 -388 561 -162 1050
-273 1715 -389 110 -20 220 -40 245 -45 25 -6 180 -22 345 -36 165 -14 359
-31 432 -37 l131 -11 -136 -146 c-970 -1043 -1724 -2452 -1956 -3656 -58 -300
-70 -436 -70 -780 -1 -286 1 -335 22 -465 78 -491 231 -865 510 -1240 156
-210 450 -485 692 -646 579 -388 1310 -621 2141 -685 234 -18 750 -7 959 21
474 61 770 157 1044 336 125 82 174 119 401 305 347 282 517 387 721 443 144
39 365 37 490 -4 131 -44 249 -138 345 -277 27 -40 103 -182 168 -315 151
-309 229 -418 421 -586 423 -370 1057 -548 1675 -471 44 6 154 28 245 49 315
74 427 77 553 17 40 -19 126 -69 192 -112 264 -170 675 -338 977 -399 449 -91
854 -69 1267 66 268 88 533 235 776 429 349 279 651 653 855 1058 99 199 143
344 181 610 25 172 22 424 -6 551 -49 223 -193 387 -383 439 -167 45 -343 19
-730 -108 -272 -90 -348 -105 -441 -90 -169 27 -243 106 -256 274 -32 393
-226 781 -502 1004 -104 84 -268 169 -396 205 -179 51 -415 58 -662 21 -60
-10 -135 -15 -166 -12 -102 9 -182 69 -230 172 -54 116 -60 171 -69 660 -12
617 -22 779 -61 1005 -65 375 -182 681 -364 955 -267 400 -734 763 -1180 918
-205 71 -448 125 -660 147 -132 14 -464 14 -601 0 -231 -23 -517 -87 -759
-169 -65 -23 -121 -41 -124 -41 -3 0 8 14 25 31 47 49 193 150 539 371 296
189 787 520 975 657 91 66 242 172 335 235 286 191 542 389 834 646 480 421
1028 989 1275 1323 652 880 1043 2026 1138 3332 16 228 16 799 0 1015 -82
1068 -369 2034 -873 2940 -1193 2142 -3479 3658 -6379 4229 -958 189 -1933
271 -2720 230z m-3740 -5642 c174 -45 329 -133 472 -266 57 -53 153 -164 163
-188 1 -1 37 13 81 32 140 60 261 86 424 92 120 4 162 2 240 -15 236 -49 418
-157 594 -352 86 -95 153 -204 205 -337 59 -147 75 -241 68 -393 -5 -122 -12
-151 -242 -1070 -137 -550 -246 -966 -260 -995 -32 -66 -97 -132 -154 -158
-72 -32 -209 -35 -286 -6 -80 30 -164 114 -194 195 -40 107 -41 102 205 1089
205 819 228 918 228 995 1 102 -24 180 -82 252 -84 106 -180 153 -302 146 -98
-6 -172 -39 -249 -113 -104 -99 -98 -79 -346 -1076 -139 -557 -235 -926 -252
-961 -35 -75 -92 -134 -162 -167 -48 -22 -69 -26 -146 -25 -75 0 -99 4 -145
25 -132 61 -223 211 -206 339 4 27 108 458 232 957 195 784 226 918 226 983
-1 209 -148 378 -344 396 -149 14 -315 -93 -389 -249 -19 -41 -105 -368 -254
-965 -142 -571 -234 -921 -250 -952 -35 -69 -75 -111 -137 -145 -49 -28 -61
-30 -158 -30 -97 0 -110 2 -164 30 -61 31 -125 95 -156 155 -25 50 -42 142
-34 187 12 72 454 1838 475 1903 120 365 439 625 864 705 118 22 313 14 435
-18z m3992 -1142 c101 -9 2017 -492 2064 -520 104 -61 168 -177 168 -305 1
-148 -89 -277 -224 -320 -57 -18 -84 -22 -138 -17 -37 3 -465 105 -952 227
l-885 222 -96 -4 c-87 -3 -103 -7 -170 -41 -235 -117 -420 -394 -475 -712 -20
-113 -14 -350 11 -440 28 -101 90 -219 151 -284 98 -107 91 -104 1089 -351
543 -135 910 -230 942 -246 63 -30 117 -88 152 -163 22 -47 26 -70 26 -146 0
-78 -4 -97 -28 -146 -34 -69 -100 -132 -175 -167 -109 -50 -95 -53 -1173 216
-531 132 -1001 254 -1045 271 -268 103 -453 336 -558 700 -79 273 -76 668 8
998 56 221 159 461 274 638 178 274 442 493 681 565 75 23 199 39 261 34 19
-2 61 -6 92 -9z m948 -1415 c461 -115 786 -201 817 -216 171 -83 234 -326 128
-494 -61 -96 -227 -173 -332 -154 -119 21 -1576 389 -1618 409 -67 31 -122 87
-157 162 -38 80 -45 150 -24 233 42 166 178 266 346 256 52 -3 312 -64 840
-196z"/>
</g>
</svg>